<?xml version="1.0" encoding="utf-8"?>
<!-- Generator: Adobe Illustrator 21.1.0, SVG Export Plug-In . SVG Version: 6.00 Build 0)  -->
<svg version="1.1" id="Layer_1" xmlns="http://www.w3.org/2000/svg" xmlns:xlink="http://www.w3.org/1999/xlink" x="0px" y="0px"
	 viewBox="0 0 680.3 170.2" style="enable-background:new 0 0 680.3 170.2;" xml:space="preserve">
<style type="text/css">
	.st0{fill:#FFFFFF;}
	.st1{fill:#DDD328;}
	.st2{fill:#DDD300;}
	.st3{fill:#EF5838;}
</style>
<rect width="680.3" height="170.2"/>
<path class="st0" d="M310.5,124.5c3,3,6.6,5.3,10.8,7c4.2,1.7,8.8,2.5,13.7,2.5c4.9,0,9.5-0.8,13.7-2.5c4.2-1.7,7.8-4,10.8-7
	c3-3,5.4-6.6,7.1-10.7c1.7-4.2,2.6-8.8,2.6-13.9c0-5.1-0.9-9.7-2.6-13.9c-1.7-4.2-4.1-7.7-7.1-10.7c-3-3-6.6-5.3-10.8-7
	c-4.2-1.7-8.8-2.5-13.7-2.5c-4.9,0-9.5,0.8-13.7,2.5c-4.2,1.7-7.8,4-10.8,7c-3,3-5.4,6.6-7.1,10.7c-1.7,4.2-2.6,8.8-2.6,13.9
	c0,5.1,0.9,9.7,2.6,13.9C305.1,117.9,307.5,121.5,310.5,124.5z M313.9,90.4c1-2.9,2.6-5.5,4.6-7.6c2-2.2,4.4-3.9,7.2-5.1
	c2.8-1.2,5.9-1.9,9.4-1.9c3.5,0,6.6,0.6,9.4,1.9c2.8,1.2,5.2,3,7.2,5.1c2,2.2,3.5,4.7,4.6,7.6c1,2.9,1.6,6.1,1.6,9.5
	s-0.5,6.6-1.6,9.5c-1.1,2.9-2.6,5.5-4.6,7.6c-2,2.2-4.4,3.9-7.2,5.1c-2.8,1.2-5.9,1.9-9.4,1.9c-3.5,0-6.6-0.6-9.4-1.9
	c-2.8-1.2-5.2-3-7.2-5.1c-2-2.2-3.5-4.7-4.6-7.6c-1.1-2.9-1.6-6.1-1.6-9.5S312.8,93.3,313.9,90.4z"/>
<g>
	<path class="st0" d="M118.6,127.8c-0.1-0.1-0.1-0.2-0.2-0.2l0,0L65.5,74.7c-1.5-1.5-3.9-1.5-5.3,0c-1.5,1.5-1.5,3.9,0,5.3
		l52.9,52.9c0.1,0.1,0.2,0.1,0.2,0.2c1.5,1.3,3.7,1.2,5.1-0.2C119.8,131.5,119.9,129.2,118.6,127.8z"/>
	<g>
		<path class="st1" d="M101.6,74.6H82.2c-1.5,0-2.8,1.2-2.8,2.8c0,1.5,1.2,2.8,2.8,2.8h19.4c1.5,0,2.8-1.2,2.8-2.8
			C104.4,75.8,103.2,74.6,101.6,74.6z"/>
		<path class="st1" d="M37.4,48c-1.1-1.1-2.8-1.1-3.9,0c-1.1,1.1-1.1,2.8,0,3.9l13.7,13.7c1.1,1.1,2.8,1.1,3.9,0
			c1.1-1.1,1.1-2.8,0-3.9L37.4,48z"/>
		<path class="st1" d="M46.3,77.3c0-1.5-1.2-2.8-2.8-2.8H24.1c-1.5,0-2.8,1.2-2.8,2.8c0,1.5,1.2,2.8,2.8,2.8h19.4
			C45,80.1,46.3,78.9,46.3,77.3z"/>
		<path class="st1" d="M47.2,89.1l-13.7,13.7c-1.1,1.1-1.1,2.8,0,3.9c1.1,1.1,2.8,1.1,3.9,0L51.1,93c1.1-1.1,1.1-2.8,0-3.9
			C50,88,48.3,88,47.2,89.1z"/>
		<path class="st1" d="M62.9,93.9c-1.5,0-2.8,1.2-2.8,2.8v19.4c0,1.5,1.2,2.8,2.8,2.8c1.5,0,2.8-1.2,2.8-2.8V96.7
			C65.6,95.2,64.4,93.9,62.9,93.9z"/>
		<path class="st1" d="M92.2,48c-1.1-1.1-2.8-1.1-3.9,0L74.6,61.7c-1.1,1.1-1.1,2.8,0,3.9c1.1,1.1,2.8,1.1,3.9,0l13.7-13.7
			C93.3,50.8,93.3,49,92.2,48z"/>
		<path class="st2" d="M62.9,35.8c-1.5,0-2.8,1.2-2.8,2.8V58c0,1.5,1.2,2.8,2.8,2.8c1.5,0,2.8-1.2,2.8-2.8V38.6
			C65.6,37,64.4,35.8,62.9,35.8z"/>
	</g>
</g>
<g>
	<path class="st0" d="M160.9,38.2c-1.5-1.6-3.4-2.4-5.6-2.4c-2.2,0-4,0.8-5.6,2.4c-1.5,1.6-2.3,3.4-2.3,5.5c0,2.3,0.7,4.2,2.2,5.7
		c1.5,1.5,3.3,2.2,5.6,2.2c2.3,0,4.2-0.7,5.6-2.2c1.5-1.5,2.2-3.4,2.2-5.7C163.1,41.6,162.4,39.7,160.9,38.2z"/>
	<path class="st0" d="M155.2,65.7c-3,0-5.4,2.4-5.4,5.4v1.6v0.1v55.8c0,3,2.4,5.4,5.4,5.4c3,0,5.4-2.4,5.4-5.4V72.8v-0.1v-1.6
		C160.6,68.1,158.2,65.7,155.2,65.7z"/>
</g>
<path class="st0" d="M235.7,81.5c-1-3.3-2.5-6.1-4.5-8.4c-2-2.3-4.6-4.1-7.6-5.4c-3.1-1.3-6.7-1.9-10.9-1.9c-2.7,0-5.1,0.3-7.4,1
	c-2.3,0.7-4.3,1.6-6.2,2.8c-1.8,1.2-3.4,2.5-4.7,4c-1,1.1-1.8,2.3-2.5,3.5v-4.2c0-3-2.4-5.4-5.4-5.4h0h0c-3,0-5.4,2.4-5.4,5.4v55.8
	c0,3,2.4,5.4,5.4,5.4c3,0,5.4-2.4,5.4-5.4V99.7c0.1-3.3,0.4-6.3,1.1-9.1c0.8-3.1,2-5.7,3.6-7.9c1.6-2.2,3.7-3.9,6.2-5.1
	c2.5-1.2,5.5-1.8,9-1.8c5,0,8.7,1.6,11.1,4.7c2.4,3.1,3.6,7.4,3.6,12.9v35.3c0,3,2.4,5.4,5.4,5.4c3,0,5.4-2.4,5.4-5.4V93.3v-1.1
	C237.2,88.3,236.7,84.8,235.7,81.5z"/>
<path class="st0" d="M292.4,127.2c-0.3-1.7-1.3-4.1-4.8-3.8l0,0c-1.6,0.4-3.2,0.6-4.8,0.6l0,0c-2.4,0-4.2-0.4-5.5-1.2
	c-1.3-0.8-2.2-1.9-2.9-3.2c-0.6-1.3-1-2.9-1.1-4.7c0-0.5,0-1.1-0.1-1.6h-0.1c0-1.4-0.1-2.8-0.1-4.3l0-34.1h14.2
	c2.2,0,4.2-1.5,4.6-3.7c0.6-2.9-1.7-5.5-4.5-5.5h-14.4l0-12.8c0-2.8-2.1-5.4-4.9-5.6c-3.2-0.3-5.8,2.2-5.8,5.3v13.1h-9.1
	c-2.5,0-4.8,1.9-4.9,4.4c-0.1,2.6,2,4.8,4.6,4.8h9.4v37.3c0,3.3,0.2,6.4,0.6,9.1c0.4,2.7,1.3,5,2.5,6.9c1.3,1.9,3.1,3.3,5.4,4.3
	c2.3,1,5.4,1.5,9.2,1.5l0,0l0,0c2,0,4.1-0.2,6.4-0.6c1.1-0.2,2.2-0.4,3.2-0.7c0.1,0,0.2-0.1,0.3-0.1c1.3-0.5,2.3-1.7,2.5-3.1
	c0-0.2,0-0.4,0-0.7C292.5,128.8,292.5,128.1,292.4,127.2z"/>
<path class="st3" d="M471.9,66c-2.9-1-6.1,0.7-7,3.6l-15.3,47.2l-15.3-47.2c-0.7-2.2-2.6-3.7-4.8-3.9h-4.8c-2.4,0-4.6,1.5-5.3,3.9
	l-15.3,47.2l-15.3-47.2c-1-2.9-4.1-4.5-7-3.6c-2.9,1-4.5,4.1-3.6,7l18.5,57c0.8,2.4,3,3.9,5.4,3.9h4.4c2.3-0.1,4.3-1.6,5.1-3.9
	l15.4-47.3l15.4,47.3c0.8,2.4,3,3.9,5.4,3.9h4.4c2.3-0.1,4.3-1.6,5.1-3.9l18.5-57C476.4,70.1,474.8,67,471.9,66z"/>
<path class="st3" d="M493.8,124.5c3,3,6.6,5.3,10.8,7c4.2,1.7,8.8,2.5,13.7,2.5c4.9,0,9.5-0.8,13.7-2.5c4.2-1.7,7.8-4,10.8-7
	c3-3,5.4-6.6,7.1-10.7c1.7-4.2,2.6-8.8,2.6-13.9c0-5.1-0.9-9.7-2.6-13.9c-1.7-4.2-4.1-7.7-7.1-10.7c-3-3-6.6-5.3-10.8-7
	c-4.2-1.7-8.8-2.5-13.7-2.5c-4.9,0-9.5,0.8-13.7,2.5c-4.2,1.7-7.8,4-10.8,7c-3,3-5.4,6.6-7.1,10.7c-1.7,4.2-2.6,8.8-2.6,13.9
	c0,5.1,0.9,9.7,2.6,13.9C488.4,117.9,490.8,121.5,493.8,124.5z M497.1,90.4c1-2.9,2.6-5.5,4.6-7.6c2-2.2,4.4-3.9,7.2-5.1
	c2.8-1.2,5.9-1.9,9.4-1.9c3.5,0,6.6,0.6,9.4,1.9c2.8,1.2,5.2,3,7.2,5.1c2,2.2,3.5,4.7,4.6,7.6c1,2.9,1.6,6.1,1.6,9.5
	s-0.5,6.6-1.6,9.5c-1.1,2.9-2.6,5.5-4.6,7.6c-2,2.2-4.4,3.9-7.2,5.1c-2.8,1.2-5.9,1.9-9.4,1.9c-3.5,0-6.6-0.6-9.4-1.9
	c-2.8-1.2-5.2-3-7.2-5.1c-2-2.2-3.5-4.7-4.6-7.6c-1.1-2.9-1.6-6.1-1.6-9.5S496.1,93.3,497.1,90.4z"/>
<path class="st3" d="M655.1,66c-2.9-1-6.1,0.7-7,3.6l-15.3,47.2l-15.3-47.2c-0.7-2.2-2.6-3.7-4.8-3.9h-4.8c-2.4,0-4.6,1.5-5.3,3.9
	l-15.3,47.2l-15.3-47.2c-1-2.9-4.1-4.5-7-3.6c-2.9,1-4.5,4.1-3.6,7l18.5,57c0.8,2.4,3,3.9,5.4,3.9h4.4c2.3-0.1,4.3-1.6,5.1-3.9
	L610,82.8l15.4,47.3c0.8,2.4,3,3.9,5.4,3.9h4.4c2.3-0.1,4.3-1.6,5.1-3.9l18.5-57C659.7,70.1,658.1,67,655.1,66z"/>
</svg>
