<?xml version="1.0" standalone="no"?>
<!DOCTYPE svg PUBLIC "-//W3C//DTD SVG 20010904//EN"
 "http://www.w3.org/TR/2001/REC-SVG-20010904/DTD/svg10.dtd">
<svg version="1.0" xmlns="http://www.w3.org/2000/svg"
 width="200.000000pt" height="200.000000pt" viewBox="0 0 200.000000 200.000000"
 preserveAspectRatio="xMidYMid meet">
<metadata>
Created by potrace 1.11, written by Peter Selinger 2001-2013
</metadata>
<g transform="translate(0.000000,200.000000) scale(0.100000,-0.100000)"
fill="#000000" stroke="none">
<path d="M557 1747 c-9 -14 -20 -40 -24 -58 -9 -33 -11 -34 -59 -36 -52 -1
-195 -35 -251 -58 -41 -17 -45 -52 -8 -61 14 -3 31 -2 38 4 6 5 28 13 47 17
19 4 40 11 45 15 6 4 44 11 85 15 l75 7 0 -159 c0 -87 3 -170 8 -186 4 -15 23
-45 43 -67 53 -58 104 -63 190 -20 35 18 64 37 64 41 0 5 5 9 10 9 6 0 10 -9
10 -20 0 -12 11 -32 25 -45 40 -41 120 -30 169 24 l19 20 27 -29 c16 -17 38
-30 50 -30 31 0 83 26 111 56 25 27 39 31 39 10 0 -20 48 -56 74 -56 30 0 126
47 127 63 1 6 5 -6 8 -28 5 -34 10 -40 34 -43 27 -3 27 -3 27 57 0 49 3 61 19
66 28 8 48 -3 61 -36 26 -61 48 -79 98 -79 58 0 75 10 70 41 -3 22 -7 24 -50
21 -45 -3 -47 -2 -57 31 -7 19 -20 42 -31 52 -19 17 -19 18 22 55 64 56 21 88
-48 35 -35 -27 -52 -33 -34 -12 25 28 80 131 80 148 0 10 5 21 10 24 17 10 11
71 -9 97 -39 49 -126 10 -152 -69 -12 -38 -14 -48 -24 -173 -7 -80 -10 -87
-44 -123 -51 -55 -81 -69 -112 -54 -37 19 -37 67 0 109 32 37 87 130 126 217
51 111 24 211 -58 211 -44 0 -106 -62 -123 -125 -1 -5 -10 -32 -18 -60 -9 -27
-19 -102 -22 -165 l-6 -115 -41 -42 c-73 -76 -105 -51 -92 72 5 43 3 65 -4 70
-7 3 -42 7 -80 8 -65 2 -69 1 -127 -42 -32 -24 -72 -56 -89 -71 -78 -73 -145
-97 -194 -70 -34 18 -51 83 -51 194 0 57 3 125 7 151 l6 48 111 -6 c61 -4 139
-10 174 -13 58 -6 62 -5 62 13 0 41 -25 48 -182 52 -147 3 -149 3 -141 25 4
11 7 37 8 56 0 43 -25 52 -48 17z m878 -76 c3 -10 -2 -41 -11 -67 -18 -57 -99
-210 -116 -220 -16 -10 -2 110 22 189 29 93 89 149 105 98z m195 -86 c0 -21
-61 -155 -70 -155 -12 0 17 117 36 145 18 28 34 33 34 10z m-613 -292 c-4 -38
-12 -54 -41 -80 -21 -19 -46 -33 -61 -33 -21 0 -25 5 -25 30 0 17 7 44 15 59
16 32 70 71 99 71 16 0 18 -6 13 -47z"/>
<path d="M577 984 c-4 -4 -7 -135 -7 -290 0 -272 1 -284 22 -321 54 -96 104
-122 229 -123 127 0 195 34 240 122 18 35 19 58 17 325 l-3 288 -35 0 -35 0
-5 -287 c-5 -271 -6 -288 -26 -315 -31 -42 -80 -62 -149 -62 -69 0 -118 20
-149 62 -20 27 -21 44 -26 315 l-5 287 -30 3 c-17 2 -34 0 -38 -4z"/>
<path d="M1212 978 c-18 -18 -15 -29 28 -85 22 -29 48 -70 60 -92 11 -22 24
-42 29 -46 6 -3 26 -32 46 -65 l36 -59 -19 -28 c-10 -15 -32 -48 -48 -73 -16
-25 -31 -47 -35 -50 -17 -15 -119 -179 -119 -192 0 -8 5 -19 12 -26 30 -30 48
-12 150 144 55 85 104 151 108 147 4 -4 51 -75 104 -156 82 -125 100 -148 119
-145 18 2 23 11 25 41 2 20 -1 37 -6 37 -5 0 -17 16 -26 35 -9 19 -31 54 -49
77 -18 24 -54 76 -80 116 l-49 72 41 62 c23 35 49 76 59 91 32 53 71 112 94
140 28 34 16 60 -29 65 -26 3 -33 -2 -46 -30 -27 -55 -153 -233 -165 -233 -11
0 -72 88 -72 104 0 4 -9 16 -20 26 -12 11 -35 45 -52 77 -26 48 -35 58 -57 58
-15 0 -32 -5 -39 -12z"/>
</g>
</svg>
